<svg xmlns="http://www.w3.org/2000/svg" viewBox="0 0 200 60" fill="none">
  <path d="M30 12C17.9543 12 8 21.9543 8 34C8 46.0457 17.9543 56 30 56C42.0457 56 52 46.0457 52 34C52 21.9543 42.0457 12 30 12Z" fill="#4F46E5" />
  <path d="M30 16C20.0589 16 12 24.0589 12 34C12 43.9411 20.0589 52 30 52C39.9411 52 48 43.9411 48 34C48 24.0589 39.9411 16 30 16Z" fill="white" />
  <path d="M30 22C23.3726 22 18 27.3726 18 34C18 40.6274 23.3726 46 30 46C36.6274 46 42 40.6274 42 34C42 27.3726 36.6274 22 30 22Z" fill="#4F46E5" />
  <path d="M30 30C27.7909 30 26 31.7909 26 34C26 36.2091 27.7909 38 30 38C32.2091 38 34 36.2091 34 34C34 31.7909 32.2091 30 30 30Z" fill="white" />
  <path d="M80.2 20C75.4 20 72 23.4 72 28.2V41H76V28.2C76 25.6 77.6 24 80.2 24H82V20H80.2Z" fill="#1E293B" />
  <path d="M87 24V41H91V32C91 29.2 93.4 26.8 96.2 26.8H98V23H96.2C93.8 23 91.8 24.2 91 26V24H87Z" fill="#1E293B" />
  <path d="M113 23C108.6 23 105 26.6 105 31C105 35.4 108.6 39 113 39C115.4 39 117.4 38 118.8 36.4V41H122.8V31C122.8 26.6 119.2 23 114.8 23H113ZM113 35C110.8 35 109 33.2 109 31C109 28.8 110.8 27 113 27C115.2 27 117 28.8 117 31C117 33.2 115.2 35 113 35Z" fill="#1E293B" />
  <path d="M131 32C131 35.2 133.6 37.8 136.8 37.8C138.6 37.8 140.2 37 141.2 35.6V37.8H145.2V23.2H141.2V25.4C140.2 24 138.6 23.2 136.8 23.2C133.6 23.2 131 25.8 131 29V32ZM135 29C135 27.8 136 26.8 137.2 26.8C138.4 26.8 139.4 27.8 139.4 29V32C139.4 33.2 138.4 34.2 137.2 34.2C136 34.2 135 33.2 135 32V29Z" fill="#1E293B" />
  <path d="M160 23C155.6 23 152 26.6 152 31C152 35.4 155.6 39 160 39C164.4 39 168 35.4 168 31C168 26.6 164.4 23 160 23ZM160 35C157.8 35 156 33.2 156 31C156 28.8 157.8 27 160 27C162.2 27 164 28.8 164 31C164 33.2 162.2 35 160 35Z" fill="#1E293B" />
  <path d="M174 23.2H170V37.8H174V30.8C174 28.2 176.2 26 178.8 26H181.2V22.2H178.8C176.8 22.2 175 23 174 24.4V23.2Z" fill="#1E293B" />
  <path d="M189 37.8H193V24H189V37.8ZM189 21H193V17H189V21Z" fill="#1E293B" />
  <path d="M196 24H200V17.8H196V24Z" fill="#4F46E5" />
  <path d="M202.9 27.2L196.9 37.8H202.1L208.1 27.2V37.8H212.1V17.8H208.1L202.1 28.4L196.1 17.8H192.1V37.8H196.1V27.2H196.9Z" fill="#1E293B" />
</svg> 